<?xml version="1.0" encoding="utf-8"?>
<!-- Generator: Adobe Illustrator 23.0.1, SVG Export Plug-In . SVG Version: 6.00 Build 0)  -->
<svg version="1.1" id="Layer_1" xmlns="http://www.w3.org/2000/svg" xmlns:xlink="http://www.w3.org/1999/xlink" x="0px" y="0px"
	 viewBox="0 0 800 600" style="enable-background:new 0 0 800 600;" xml:space="preserve">
<style type="text/css">
	.st0{fill:url(#SVGID_1_);}
	.st1{fill:url(#SVGID_2_);}
	.st2{fill:#39B54A;}
	.st3{fill:#2E3192;}
</style>
<g>
	<linearGradient id="SVGID_1_" gradientUnits="userSpaceOnUse" x1="136" y1="312.9621" x2="252.9487" y2="312.9621">
		<stop  offset="0" style="stop-color:#262D69"/>
		<stop  offset="1" style="stop-color:#2797CD"/>
	</linearGradient>
	<path class="st0" d="M164.51,335.29v-60.67h14.62v46.05l48.24-46.78c0,0,15.62,15.62,25.58,25.58v-21.9
		c0-9.7-7.86-17.57-17.57-17.57h-81.82c-9.7,0-17.57,7.86-17.57,17.57v81.82c0,2.31,0.46,4.52,1.27,6.54L164.51,335.29z"/>
	<linearGradient id="SVGID_2_" gradientUnits="userSpaceOnUse" x1="145.3524" y1="334.9202" x2="252.9487" y2="334.9202">
		<stop  offset="0" style="stop-color:#418838"/>
		<stop  offset="1" style="stop-color:#8AC33F"/>
	</linearGradient>
	<path class="st1" d="M227.37,292.89l-82.01,82.01c2.45,1.3,5.24,2.04,8.21,2.04h81.82c9.7,0,17.57-7.86,17.57-17.57v-39.96
		L227.37,292.89z M222.83,350.04h-12.27v-12.27h12.27V350.04z M222.83,334.27h-12.27v-12.27h12.27V334.27z M238.33,350.04h-12.27
		v-12.27h12.27V350.04z M238.33,334.27h-12.27v-12.27h12.27V334.27z"/>
	<g>
		<path class="st2" d="M279.57,366.62v1.43h-6.89v-9.19h6.71v1.43h-5v2.39h4.44v1.41h-4.44v2.53H279.57z"/>
		<path class="st2" d="M283.98,360.29v2.8h4.44v1.44h-4.44v3.52h-1.71v-9.19h6.71v1.43H283.98z"/>
		<path class="st2" d="M293.14,360.29v2.8h4.44v1.44h-4.44v3.52h-1.71v-9.19h6.71v1.43H293.14z"/>
		<path class="st2" d="M300.6,358.86h1.71v9.19h-1.71V358.86z"/>
		<path class="st2" d="M307.32,367.57c-0.75-0.41-1.33-0.97-1.76-1.69c-0.42-0.72-0.64-1.53-0.64-2.43s0.21-1.71,0.64-2.43
			c0.43-0.72,1.02-1.28,1.77-1.69c0.75-0.41,1.59-0.61,2.51-0.61c0.75,0,1.44,0.13,2.06,0.39c0.62,0.26,1.15,0.64,1.58,1.14
			l-1.1,1.04c-0.67-0.72-1.48-1.08-2.45-1.08c-0.63,0-1.19,0.14-1.69,0.41c-0.5,0.28-0.89,0.66-1.17,1.15
			c-0.28,0.49-0.42,1.05-0.42,1.67c0,0.62,0.14,1.18,0.42,1.67c0.28,0.49,0.67,0.87,1.17,1.15c0.5,0.28,1.06,0.41,1.69,0.41
			c0.97,0,1.79-0.36,2.45-1.09l1.1,1.05c-0.43,0.5-0.96,0.88-1.58,1.14c-0.63,0.26-1.32,0.39-2.07,0.39
			C308.91,368.18,308.07,367.97,307.32,367.57z"/>
		<path class="st2" d="M315.93,358.86h1.71v9.19h-1.71V358.86z"/>
		<path class="st2" d="M327.81,366.62v1.43h-6.89v-9.19h6.71v1.43h-5v2.39h4.44v1.41h-4.44v2.53H327.81z"/>
		<path class="st2" d="M338.68,358.86v9.19h-1.4l-5.07-6.22v6.22h-1.69v-9.19h1.4l5.07,6.22v-6.22H338.68z"/>
		<path class="st2" d="M343.81,360.3h-3.05v-1.44h7.8v1.44h-3.05v7.75h-1.71V360.3z"/>
		<path class="st2" d="M361.03,365.92h-4.59l-0.91,2.13h-1.76l4.14-9.19h1.68l4.15,9.19h-1.79L361.03,365.92z M360.47,364.58
			l-1.73-4.02l-1.72,4.02H360.47z"/>
		<path class="st2" d="M373.87,358.86v9.19h-1.4l-5.07-6.22v6.22h-1.69v-9.19h1.4l5.07,6.22v-6.22H373.87z"/>
		<path class="st2" d="M377.14,358.86h4.02c0.98,0,1.85,0.19,2.61,0.57c0.76,0.38,1.35,0.92,1.77,1.62c0.42,0.7,0.63,1.5,0.63,2.41
			c0,0.91-0.21,1.71-0.63,2.41c-0.42,0.7-1.01,1.23-1.77,1.61c-0.76,0.38-1.63,0.57-2.61,0.57h-4.02V358.86z M381.08,366.6
			c0.67,0,1.27-0.13,1.78-0.39c0.51-0.26,0.91-0.63,1.18-1.1c0.28-0.48,0.41-1.03,0.41-1.66c0-0.63-0.14-1.18-0.41-1.66
			c-0.28-0.48-0.67-0.84-1.18-1.1c-0.51-0.26-1.1-0.39-1.78-0.39h-2.23v6.3H381.08z"/>
		<path class="st2" d="M399.17,365.92h-4.59l-0.91,2.13h-1.76l4.14-9.19h1.68l4.15,9.19h-1.79L399.17,365.92z M398.6,364.58
			l-1.73-4.02l-1.72,4.02H398.6z"/>
		<path class="st2" d="M405.55,360.29v2.8h4.44v1.44h-4.44v3.52h-1.71v-9.19h6.71v1.43H405.55z"/>
		<path class="st2" d="M414.71,360.29v2.8h4.44v1.44h-4.44v3.52H413v-9.19h6.71v1.43H414.71z"/>
		<path class="st2" d="M423.82,367.57c-0.75-0.41-1.34-0.97-1.77-1.69c-0.43-0.72-0.64-1.53-0.64-2.42s0.21-1.7,0.64-2.42
			c0.43-0.72,1.02-1.29,1.77-1.69c0.75-0.41,1.6-0.61,2.53-0.61c0.94,0,1.78,0.2,2.53,0.61c0.75,0.41,1.34,0.97,1.77,1.69
			c0.43,0.72,0.64,1.53,0.64,2.43s-0.21,1.71-0.64,2.43c-0.43,0.72-1.02,1.28-1.77,1.69c-0.75,0.41-1.6,0.61-2.53,0.61
			C425.42,368.18,424.57,367.97,423.82,367.57z M428.01,366.27c0.49-0.28,0.88-0.66,1.16-1.16c0.28-0.49,0.42-1.05,0.42-1.66
			c0-0.61-0.14-1.17-0.42-1.66c-0.28-0.49-0.67-0.88-1.16-1.16c-0.49-0.28-1.04-0.41-1.65-0.41c-0.61,0-1.16,0.14-1.65,0.41
			c-0.49,0.28-0.88,0.66-1.16,1.16c-0.28,0.49-0.42,1.05-0.42,1.66c0,0.61,0.14,1.17,0.42,1.66c0.28,0.49,0.67,0.88,1.16,1.16
			c0.49,0.28,1.04,0.41,1.65,0.41C426.96,366.68,427.52,366.54,428.01,366.27z"/>
		<path class="st2" d="M439.93,368.05l-1.88-2.69c-0.08,0.01-0.2,0.01-0.35,0.01h-2.07v2.68h-1.71v-9.19h3.78
			c0.8,0,1.49,0.13,2.08,0.39c0.59,0.26,1.04,0.64,1.36,1.13c0.32,0.49,0.47,1.07,0.47,1.75c0,0.69-0.17,1.29-0.51,1.79
			c-0.34,0.5-0.82,0.87-1.45,1.12l2.11,3.02H439.93z M439.31,360.77c-0.39-0.31-0.95-0.47-1.69-0.47h-2v3.66h2
			c0.74,0,1.31-0.16,1.69-0.48c0.38-0.32,0.58-0.77,0.58-1.36S439.69,361.09,439.31,360.77z"/>
		<path class="st2" d="M444.31,358.86h4.02c0.98,0,1.85,0.19,2.61,0.57c0.76,0.38,1.35,0.92,1.77,1.62c0.42,0.7,0.63,1.5,0.63,2.41
			c0,0.91-0.21,1.71-0.63,2.41c-0.42,0.7-1.01,1.23-1.77,1.61c-0.76,0.38-1.63,0.57-2.61,0.57h-4.02V358.86z M448.25,366.6
			c0.67,0,1.27-0.13,1.78-0.39c0.51-0.26,0.91-0.63,1.18-1.1c0.28-0.48,0.41-1.03,0.41-1.66c0-0.63-0.14-1.18-0.41-1.66
			c-0.28-0.48-0.67-0.84-1.18-1.1c-0.51-0.26-1.1-0.39-1.78-0.39h-2.23v6.3H448.25z"/>
		<path class="st2" d="M461.78,365.92h-4.59l-0.91,2.13h-1.76l4.14-9.19h1.68l4.15,9.19h-1.79L461.78,365.92z M461.22,364.58
			l-1.73-4.02l-1.72,4.02H461.22z"/>
		<path class="st2" d="M474.17,364.1c0.3,0.39,0.45,0.87,0.45,1.45c0,0.8-0.31,1.41-0.92,1.84c-0.61,0.43-1.51,0.65-2.68,0.65h-4.57
			v-9.19h4.31c1.09,0,1.92,0.21,2.51,0.64c0.59,0.42,0.88,1.01,0.88,1.75c0,0.45-0.1,0.86-0.31,1.21c-0.21,0.35-0.5,0.62-0.87,0.81
			C473.47,363.43,473.88,363.71,474.17,364.1z M468.16,360.2v2.53h2.42c0.59,0,1.05-0.11,1.37-0.32c0.32-0.21,0.48-0.53,0.48-0.94
			c0-0.42-0.16-0.74-0.48-0.95c-0.32-0.21-0.78-0.32-1.37-0.32H468.16z M472.9,365.38c0-0.88-0.66-1.33-1.98-1.33h-2.76v2.65h2.76
			C472.24,366.71,472.9,366.27,472.9,365.38z"/>
		<path class="st2" d="M477.25,358.86h1.71v7.75h4.8v1.44h-6.51V358.86z"/>
		<path class="st2" d="M492.8,366.62v1.43h-6.89v-9.19h6.71v1.43h-5v2.39h4.44v1.41h-4.44v2.53H492.8z"/>
		<path class="st2" d="M508.09,358.86v9.19h-1.71v-3.94h-4.75v3.94h-1.71v-9.19h1.71v3.79h4.75v-3.79H508.09z"/>
		<path class="st2" d="M513.12,367.57c-0.75-0.41-1.34-0.97-1.77-1.69c-0.43-0.72-0.64-1.53-0.64-2.42s0.21-1.7,0.64-2.42
			c0.43-0.72,1.02-1.29,1.77-1.69c0.75-0.41,1.6-0.61,2.53-0.61c0.94,0,1.78,0.2,2.53,0.61c0.75,0.41,1.34,0.97,1.77,1.69
			c0.43,0.72,0.64,1.53,0.64,2.43s-0.21,1.71-0.64,2.43c-0.43,0.72-1.02,1.28-1.77,1.69c-0.75,0.41-1.6,0.61-2.53,0.61
			C514.72,368.18,513.87,367.97,513.12,367.57z M517.31,366.27c0.49-0.28,0.87-0.66,1.15-1.16c0.28-0.49,0.42-1.05,0.42-1.66
			c0-0.61-0.14-1.17-0.42-1.66c-0.28-0.49-0.66-0.88-1.15-1.16c-0.49-0.28-1.04-0.41-1.65-0.41c-0.61,0-1.16,0.14-1.65,0.41
			c-0.49,0.28-0.87,0.66-1.15,1.16c-0.28,0.49-0.42,1.05-0.42,1.66c0,0.61,0.14,1.17,0.42,1.66c0.28,0.49,0.66,0.88,1.15,1.16
			c0.49,0.28,1.04,0.41,1.65,0.41C516.27,366.68,516.82,366.54,517.31,366.27z"/>
		<path class="st2" d="M531.66,368.05l-0.01-6.09l-3.02,5.04h-0.76l-3.02-4.96v6.01h-1.63v-9.19h1.4l3.65,6.09l3.58-6.09h1.4
			l0.01,9.19H531.66z"/>
		<path class="st2" d="M543.44,366.62v1.43h-6.89v-9.19h6.71v1.43h-5v2.39h4.44v1.41h-4.44v2.53H543.44z"/>
		<path class="st2" d="M559.01,368.05l-0.01-6.09l-3.02,5.04h-0.76l-3.02-4.96v6.01h-1.63v-9.19h1.4l3.65,6.09l3.58-6.09h1.4
			l0.01,9.19H559.01z"/>
		<path class="st2" d="M569.87,365.92h-4.59l-0.91,2.13h-1.76l4.14-9.19h1.68l4.15,9.19h-1.79L569.87,365.92z M569.31,364.58
			l-1.73-4.02l-1.72,4.02H569.31z"/>
		<path class="st2" d="M574.54,358.86h1.71v9.19h-1.71V358.86z"/>
		<path class="st2" d="M587.7,358.86v9.19h-1.41l-5.07-6.22v6.22h-1.69v-9.19h1.4l5.07,6.22v-6.22H587.7z"/>
		<path class="st2" d="M592.83,360.3h-3.04v-1.44h7.8v1.44h-3.05v7.75h-1.71V360.3z"/>
		<path class="st2" d="M606.56,366.62v1.43h-6.89v-9.19h6.71v1.43h-5v2.39h4.44v1.41h-4.44v2.53H606.56z"/>
		<path class="st2" d="M617.43,358.86v9.19h-1.41l-5.07-6.22v6.22h-1.69v-9.19h1.4l5.07,6.22v-6.22H617.43z"/>
		<path class="st2" d="M626.66,365.92h-4.59l-0.91,2.13h-1.76l4.14-9.19h1.68l4.15,9.19h-1.79L626.66,365.92z M626.09,364.58
			l-1.73-4.02l-1.72,4.02H626.09z"/>
		<path class="st2" d="M639.5,358.86v9.19h-1.41l-5.07-6.22v6.22h-1.69v-9.19h1.4l5.07,6.22v-6.22H639.5z"/>
		<path class="st2" d="M644.5,367.57c-0.75-0.41-1.33-0.97-1.76-1.69c-0.42-0.72-0.64-1.53-0.64-2.43s0.21-1.71,0.64-2.43
			c0.43-0.72,1.02-1.28,1.77-1.69c0.75-0.41,1.59-0.61,2.51-0.61c0.75,0,1.44,0.13,2.06,0.39c0.62,0.26,1.15,0.64,1.58,1.14
			l-1.1,1.04c-0.66-0.72-1.48-1.08-2.45-1.08c-0.63,0-1.19,0.14-1.69,0.41c-0.5,0.28-0.89,0.66-1.17,1.15
			c-0.28,0.49-0.42,1.05-0.42,1.67c0,0.62,0.14,1.18,0.42,1.67c0.28,0.49,0.67,0.87,1.17,1.15c0.5,0.28,1.06,0.41,1.69,0.41
			c0.97,0,1.79-0.36,2.45-1.09l1.1,1.05c-0.43,0.5-0.96,0.88-1.58,1.14c-0.63,0.26-1.31,0.39-2.07,0.39
			C646.09,368.18,645.25,367.97,644.5,367.57z"/>
		<path class="st2" d="M660,366.62v1.43h-6.89v-9.19h6.71v1.43h-5v2.39h4.44v1.41h-4.44v2.53H660z"/>
	</g>
	<g>
		<path class="st2" d="M285.85,328.94c1.33,0.59,2.35,1.44,3.05,2.54c0.71,1.1,1.06,2.41,1.06,3.92c0,1.5-0.35,2.8-1.06,3.91
			c-0.71,1.11-1.73,1.96-3.05,2.55c-1.33,0.59-2.89,0.89-4.68,0.89h-4.66v5.96h-3.84v-20.65h8.5
			C282.96,328.05,284.52,328.35,285.85,328.94z M284.8,338.44c0.87-0.71,1.3-1.72,1.3-3.04c0-1.32-0.43-2.33-1.3-3.04
			c-0.87-0.71-2.13-1.06-3.81-1.06h-4.48v8.2h4.48C282.67,339.5,283.93,339.15,284.8,338.44z"/>
		<path class="st2" d="M309.11,348.7l-4.22-6.05c-0.18,0.02-0.44,0.03-0.8,0.03h-4.66v6.02h-3.84v-20.65h8.5
			c1.79,0,3.35,0.29,4.68,0.89c1.33,0.59,2.35,1.44,3.05,2.54c0.71,1.1,1.06,2.41,1.06,3.92c0,1.55-0.38,2.89-1.14,4.01
			c-0.76,1.12-1.84,1.96-3.26,2.51l4.75,6.79H309.11z M307.72,332.36c-0.87-0.71-2.13-1.06-3.81-1.06h-4.48v8.23h4.48
			c1.67,0,2.94-0.36,3.81-1.08c0.87-0.72,1.3-1.74,1.3-3.05C309.02,334.08,308.59,333.07,307.72,332.36z"/>
		<path class="st2" d="M322.92,347.63c-1.69-0.92-3.02-2.18-3.98-3.81c-0.96-1.62-1.45-3.44-1.45-5.44c0-2.01,0.48-3.82,1.45-5.44
			c0.96-1.62,2.29-2.89,3.98-3.81c1.69-0.91,3.59-1.37,5.69-1.37c2.1,0,4,0.46,5.69,1.37c1.69,0.92,3.02,2.18,3.98,3.79
			c0.96,1.61,1.45,3.43,1.45,5.46c0,2.03-0.48,3.85-1.45,5.46c-0.96,1.61-2.29,2.88-3.98,3.79c-1.69,0.91-3.59,1.37-5.69,1.37
			C326.51,349,324.61,348.54,322.92,347.63z M332.33,344.71c1.1-0.62,1.97-1.48,2.6-2.6c0.63-1.11,0.94-2.35,0.94-3.73
			c0-1.38-0.31-2.62-0.94-3.73c-0.63-1.11-1.49-1.98-2.6-2.6c-1.1-0.62-2.34-0.93-3.72-0.93c-1.38,0-2.62,0.31-3.72,0.93
			c-1.1,0.62-1.97,1.48-2.6,2.6c-0.63,1.11-0.94,2.36-0.94,3.73c0,1.38,0.31,2.62,0.94,3.73c0.63,1.11,1.49,1.98,2.6,2.6
			c1.1,0.62,2.34,0.93,3.72,0.93C329.99,345.64,331.23,345.33,332.33,344.71z"/>
		<path class="st2" d="M358.78,328.94c1.33,0.59,2.35,1.44,3.05,2.54c0.71,1.1,1.06,2.41,1.06,3.92c0,1.5-0.35,2.8-1.06,3.91
			c-0.71,1.11-1.73,1.96-3.05,2.55c-1.33,0.59-2.89,0.89-4.68,0.89h-4.66v5.96h-3.84v-20.65h8.5
			C355.89,328.05,357.45,328.35,358.78,328.94z M357.73,338.44c0.87-0.71,1.3-1.72,1.3-3.04c0-1.32-0.43-2.33-1.3-3.04
			c-0.87-0.71-2.13-1.06-3.81-1.06h-4.48v8.2h4.48C355.59,339.5,356.86,339.15,357.73,338.44z"/>
		<path class="st2" d="M384.01,345.49v3.22h-15.49v-20.65h15.08v3.22h-11.24v5.37h9.97v3.16h-9.97v5.69H384.01z"/>
		<path class="st2" d="M403.6,348.7l-4.22-6.05c-0.18,0.02-0.44,0.03-0.8,0.03h-4.66v6.02h-3.84v-20.65h8.5
			c1.79,0,3.35,0.29,4.68,0.89c1.33,0.59,2.35,1.44,3.05,2.54c0.71,1.1,1.06,2.41,1.06,3.92c0,1.55-0.38,2.89-1.14,4.01
			c-0.76,1.12-1.84,1.96-3.26,2.51l4.75,6.79H403.6z M402.22,332.36c-0.87-0.71-2.13-1.06-3.81-1.06h-4.48v8.23h4.48
			c1.67,0,2.94-0.36,3.81-1.08c0.87-0.72,1.3-1.74,1.3-3.05C403.51,334.08,403.08,333.07,402.22,332.36z"/>
		<path class="st2" d="M417.35,331.3h-6.84v-3.24h17.52v3.24h-6.84v17.41h-3.84V331.3z"/>
		<path class="st2" d="M441.34,341.42v7.29h-3.84v-7.23l-8.11-13.42h4.1l6.05,10.06l6.11-10.06h3.78L441.34,341.42z"/>
		<path class="st2" d="M482.64,348.7l-0.03-13.69l-6.78,11.33h-1.71l-6.79-11.15v13.51h-3.66v-20.65h3.16l8.2,13.69l8.05-13.69h3.16
			l0.03,20.65H482.64z"/>
		<path class="st2" d="M507.03,343.92h-10.33l-2.04,4.78h-3.95l9.29-20.65h3.78l9.32,20.65h-4.01L507.03,343.92z M505.77,340.92
			l-3.89-9.03l-3.86,9.03H505.77z"/>
		<path class="st2" d="M517.54,328.05h3.84v20.65h-3.84V328.05z"/>
		<path class="st2" d="M547.1,328.05v20.65h-3.16l-11.39-13.98v13.98h-3.81v-20.65h3.16l11.39,13.98v-13.98H547.1z"/>
		<path class="st2" d="M558.63,331.3h-6.84v-3.24h17.52v3.24h-6.84v17.41h-3.84V331.3z"/>
		<path class="st2" d="M589.49,345.49v3.22H574v-20.65h15.08v3.22h-11.24v5.37h9.97v3.16h-9.97v5.69H589.49z"/>
		<path class="st2" d="M613.92,328.05v20.65h-3.16l-11.39-13.98v13.98h-3.81v-20.65h3.16l11.39,13.98v-13.98H613.92z"/>
		<path class="st2" d="M625.17,347.63c-1.68-0.92-3-2.18-3.95-3.79c-0.95-1.61-1.43-3.43-1.43-5.46c0-2.03,0.48-3.85,1.45-5.46
			c0.96-1.61,2.29-2.88,3.97-3.79c1.68-0.91,3.56-1.37,5.65-1.37c1.69,0,3.23,0.29,4.63,0.88c1.4,0.59,2.58,1.45,3.54,2.57
			l-2.48,2.33c-1.5-1.61-3.33-2.42-5.52-2.42c-1.42,0-2.69,0.31-3.81,0.93c-1.12,0.62-2,1.48-2.63,2.58
			c-0.63,1.1-0.94,2.35-0.94,3.75c0,1.4,0.31,2.65,0.94,3.75c0.63,1.1,1.5,1.96,2.63,2.58c1.12,0.62,2.39,0.93,3.81,0.93
			c2.18,0,4.02-0.82,5.52-2.45l2.48,2.36c-0.96,1.12-2.15,1.98-3.56,2.57c-1.41,0.59-2.95,0.88-4.65,0.88
			C628.74,349,626.85,348.54,625.17,347.63z"/>
		<path class="st2" d="M660,345.49v3.22h-15.49v-20.65h15.08v3.22h-11.24v5.37h9.97v3.16h-9.97v5.69H660z"/>
	</g>
	<g>
		<polygon class="st3" points="304.47,273.59 294.71,289.93 284.96,273.59 272.68,273.59 288.37,299.8 288.37,314.73 300,314.73 
			300,299.98 315.75,273.59 		"/>
		<path class="st3" d="M349.4,275.53c-3.47-1.84-7.38-2.76-11.72-2.76c-4.35,0-8.26,0.92-11.72,2.76c-3.47,1.84-6.19,4.39-8.17,7.64
			c-1.98,3.25-2.97,6.92-2.97,10.99c0,4.08,0.99,7.74,2.97,10.99c1.98,3.25,4.7,5.8,8.17,7.64c3.47,1.84,7.38,2.76,11.72,2.76
			c4.35,0,8.26-0.92,11.72-2.76c3.47-1.84,6.19-4.39,8.17-7.64c1.98-3.25,2.97-6.91,2.97-10.99c0-4.07-0.99-7.74-2.97-10.99
			C355.59,279.92,352.87,277.37,349.4,275.53z M347.31,300.3c-0.98,1.78-2.31,3.16-4,4.14c-1.69,0.98-3.57,1.47-5.64,1.47
			c-2.08,0-3.96-0.49-5.64-1.47c-1.69-0.98-3.02-2.36-4-4.14c-0.98-1.78-1.47-3.83-1.47-6.14c0-2.31,0.49-4.36,1.47-6.14
			c0.98-1.78,2.31-3.16,4-4.14c1.68-0.98,3.56-1.47,5.64-1.47c2.08,0,3.96,0.49,5.64,1.47c1.68,0.98,3.02,2.36,4,4.14
			c0.98,1.78,1.47,3.83,1.47,6.14C348.78,296.47,348.29,298.52,347.31,300.3z"/>
		<path class="st3" d="M393.5,296.04c0,6.58-2.59,9.87-7.76,9.87c-5.21,0-7.82-3.29-7.82-9.87v-22.45h-11.64v22.8
			c0,6.11,1.69,10.83,5.08,14.16c3.39,3.33,8.14,5,14.25,5c6.11,0,10.86-1.66,14.25-5c3.39-3.33,5.08-8.05,5.08-14.16v-22.8H393.5
			V296.04z"/>
		<path class="st3" d="M447.84,296.6c1.39-2.21,2.09-4.81,2.09-7.79c0-3.09-0.75-5.79-2.23-8.08c-1.49-2.29-3.61-4.05-6.35-5.29
			c-2.74-1.23-5.97-1.85-9.7-1.85h-18.81v41.14h11.64V303.8h6.35l7.46,10.93h12.46l-8.87-12.93
			C444.46,300.55,446.44,298.81,447.84,296.6z M436.35,293.25c-1.22,1.04-3.02,1.56-5.41,1.56h-6.46v-12.05h6.46
			c2.39,0,4.19,0.53,5.41,1.59c1.21,1.06,1.82,2.55,1.82,4.47C438.17,290.73,437.56,292.21,436.35,293.25z"/>
		<polygon class="st3" points="500.93,289.05 485.06,289.05 485.06,273.59 473.43,273.59 473.43,314.73 485.06,314.73 
			485.06,298.69 500.93,298.69 500.93,314.73 512.57,314.73 512.57,273.59 500.93,273.59 		"/>
		<path class="st3" d="M553.27,275.53c-3.47-1.84-7.38-2.76-11.72-2.76c-4.35,0-8.26,0.92-11.72,2.76
			c-3.47,1.84-6.19,4.39-8.17,7.64c-1.98,3.25-2.97,6.92-2.97,10.99c0,4.08,0.99,7.74,2.97,10.99c1.98,3.25,4.7,5.8,8.17,7.64
			c3.47,1.84,7.38,2.76,11.72,2.76c4.35,0,8.26-0.92,11.72-2.76c3.47-1.84,6.19-4.39,8.17-7.64c1.98-3.25,2.97-6.91,2.97-10.99
			c0-4.07-0.99-7.74-2.97-10.99C559.45,279.92,556.73,277.37,553.27,275.53z M551.18,300.3c-0.98,1.78-2.31,3.16-4,4.14
			c-1.69,0.98-3.57,1.47-5.64,1.47c-2.08,0-3.96-0.49-5.64-1.47c-1.69-0.98-3.02-2.36-4-4.14c-0.98-1.78-1.47-3.83-1.47-6.14
			c0-2.31,0.49-4.36,1.47-6.14c0.98-1.78,2.31-3.16,4-4.14c1.68-0.98,3.57-1.47,5.64-1.47c2.08,0,3.96,0.49,5.64,1.47
			c1.68,0.98,3.02,2.36,4,4.14c0.98,1.78,1.47,3.83,1.47,6.14C552.65,296.47,552.16,298.52,551.18,300.3z"/>
		<polygon class="st3" points="608.65,273.59 594.55,297.33 580.09,273.59 570.51,273.59 570.51,314.73 581.27,314.73 
			581.27,293.51 591.79,310.67 596.96,310.67 607.54,292.93 607.66,314.73 618.35,314.73 618.23,273.59 		"/>
		<polygon class="st3" points="638.1,305.74 638.1,298.22 656.37,298.22 656.37,289.52 638.1,289.52 638.1,282.58 658.84,282.58 
			658.84,273.59 626.58,273.59 626.58,314.73 659.61,314.73 659.61,305.74 		"/>
	</g>
</g>
</svg>
