<?xml version="1.0" encoding="utf-8"?>
<!-- Generator: Adobe Illustrator 23.0.1, SVG Export Plug-In . SVG Version: 6.00 Build 0)  -->
<svg version="1.1" id="Layer_1" xmlns="http://www.w3.org/2000/svg" xmlns:xlink="http://www.w3.org/1999/xlink" x="0px" y="0px"
	 viewBox="0 0 800 600" style="enable-background:new 0 0 800 600;" xml:space="preserve">
<style type="text/css">
	.st0{fill:url(#SVGID_1_);}
	.st1{fill:url(#SVGID_2_);}
	.st2{fill:#39B54A;}
	.st3{fill:#2E3192;}
</style>
<linearGradient id="SVGID_1_" gradientUnits="userSpaceOnUse" x1="135.99" y1="285.035" x2="252.95" y2="285.035" gradientTransform="matrix(1 0 0 -1 0 600)">
	<stop  offset="0" style="stop-color:#262D69"/>
	<stop  offset="1" style="stop-color:#2797CD"/>
</linearGradient>
<path class="st0" d="M164.5,337.3v-60.7h14.6v46l48.2-46.8c0,0,15.6,15.6,25.6,25.6v-21.9c0-9.7-7.9-17.6-17.6-17.6h-81.8
	c-9.7,0-17.6,7.9-17.6,17.6v81.8c0,2.3,0.5,4.5,1.3,6.5L164.5,337.3z"/>
<linearGradient id="SVGID_2_" gradientUnits="userSpaceOnUse" x1="145.36" y1="263.085" x2="252.96" y2="263.085" gradientTransform="matrix(1 0 0 -1 0 600)">
	<stop  offset="0" style="stop-color:#418838"/>
	<stop  offset="1" style="stop-color:#8AC33F"/>
</linearGradient>
<path class="st1" d="M227.4,294.9l-82,82c2.4,1.3,5.2,2,8.2,2h81.8c9.7,0,17.6-7.9,17.6-17.6v-40L227.4,294.9z M222.8,352h-12.3
	v-12.3h12.3V352z M222.8,336.3h-12.3V324h12.3V336.3z M238.3,352h-12.3v-12.3h12.3V352z M238.3,336.3h-12.3V324h12.3V336.3z"/>
<g>
	<path class="st2" d="M279.6,368.6v1.4h-6.9v-9.2h6.7v1.4h-5v2.4h4.4v1.4h-4.4v2.5H279.6z"/>
	<path class="st2" d="M284,362.3v2.8h4.4v1.4H284v3.5h-1.7v-9.2h6.7v1.4L284,362.3L284,362.3z"/>
	<path class="st2" d="M293.1,362.3v2.8h4.4v1.4h-4.4v3.5h-1.7v-9.2h6.7v1.4L293.1,362.3L293.1,362.3z"/>
	<path class="st2" d="M300.6,360.9h1.7v9.2h-1.7V360.9z"/>
	<path class="st2" d="M307.3,369.6c-0.8-0.4-1.3-1-1.8-1.7c-0.4-0.7-0.6-1.5-0.6-2.4s0.2-1.7,0.6-2.4c0.4-0.7,1-1.3,1.8-1.7
		s1.6-0.6,2.5-0.6c0.8,0,1.4,0.1,2.1,0.4s1.1,0.6,1.6,1.1l-1.1,1c-0.7-0.7-1.5-1.1-2.5-1.1c-0.6,0-1.2,0.1-1.7,0.4
		c-0.5,0.3-0.9,0.7-1.2,1.1s-0.4,1-0.4,1.7c0,0.6,0.1,1.2,0.4,1.7c0.3,0.5,0.7,0.9,1.2,1.1s1.1,0.4,1.7,0.4c1,0,1.8-0.4,2.5-1.1
		l1.1,1c-0.4,0.5-1,0.9-1.6,1.1c-0.6,0.3-1.3,0.4-2.1,0.4C308.9,370.2,308.1,370,307.3,369.6z"/>
	<path class="st2" d="M315.9,360.9h1.7v9.2h-1.7V360.9z"/>
	<path class="st2" d="M327.8,368.6v1.4h-6.9v-9.2h6.7v1.4h-5v2.4h4.4v1.4h-4.4v2.5H327.8z"/>
	<path class="st2" d="M338.7,360.9v9.2h-1.4l-5.1-6.2v6.2h-1.7v-9.2h1.4l5.1,6.2v-6.2H338.7z"/>
	<path class="st2" d="M343.8,362.3h-3v-1.4h7.8v1.4h-3v7.8h-1.7L343.8,362.3L343.8,362.3z"/>
	<path class="st2" d="M361,367.9h-4.6l-0.9,2.1h-1.8l4.1-9.2h1.7l4.1,9.2h-1.8L361,367.9z M360.5,366.6l-1.7-4l-1.7,4H360.5z"/>
	<path class="st2" d="M373.9,360.9v9.2h-1.4l-5.1-6.2v6.2h-1.7v-9.2h1.4l5.1,6.2v-6.2H373.9z"/>
	<path class="st2" d="M377.1,360.9h4c1,0,1.9,0.2,2.6,0.6c0.8,0.4,1.4,0.9,1.8,1.6c0.4,0.7,0.6,1.5,0.6,2.4s-0.2,1.7-0.6,2.4
		s-1,1.2-1.8,1.6c-0.8,0.4-1.6,0.6-2.6,0.6h-4V360.9z M381.1,368.6c0.7,0,1.3-0.1,1.8-0.4s0.9-0.6,1.2-1.1c0.3-0.5,0.4-1,0.4-1.7
		s-0.1-1.2-0.4-1.7c-0.3-0.5-0.7-0.8-1.2-1.1c-0.5-0.3-1.1-0.4-1.8-0.4h-2.2v6.3L381.1,368.6L381.1,368.6z"/>
	<path class="st2" d="M399.2,367.9h-4.6l-0.9,2.1h-1.8l4.1-9.2h1.7l4.1,9.2h-1.8L399.2,367.9z M398.6,366.6l-1.7-4l-1.7,4H398.6z"/>
	<path class="st2" d="M405.5,362.3v2.8h4.4v1.4h-4.4v3.5h-1.7v-9.2h6.7v1.4L405.5,362.3L405.5,362.3z"/>
	<path class="st2" d="M414.7,362.3v2.8h4.4v1.4h-4.4v3.5H413v-9.2h6.7v1.4L414.7,362.3L414.7,362.3z"/>
	<path class="st2" d="M423.8,369.6c-0.8-0.4-1.3-1-1.8-1.7s-0.6-1.5-0.6-2.4s0.2-1.7,0.6-2.4c0.4-0.7,1-1.3,1.8-1.7
		c0.8-0.4,1.6-0.6,2.5-0.6c0.9,0,1.8,0.2,2.5,0.6c0.8,0.4,1.3,1,1.8,1.7s0.6,1.5,0.6,2.4s-0.2,1.7-0.6,2.4c-0.4,0.7-1,1.3-1.8,1.7
		s-1.6,0.6-2.5,0.6C425.4,370.2,424.6,370,423.8,369.6z M428,368.3c0.5-0.3,0.9-0.7,1.2-1.2c0.3-0.5,0.4-1,0.4-1.7
		c0-0.6-0.1-1.2-0.4-1.7s-0.7-0.9-1.2-1.2s-1-0.4-1.6-0.4s-1.2,0.1-1.6,0.4c-0.5,0.3-0.9,0.7-1.2,1.2c-0.3,0.5-0.4,1-0.4,1.7
		c0,0.6,0.1,1.2,0.4,1.7s0.7,0.9,1.2,1.2s1,0.4,1.6,0.4C427,368.7,427.5,368.5,428,368.3z"/>
	<path class="st2" d="M439.9,370l-1.9-2.7c-0.1,0-0.2,0-0.4,0h-2.1v2.7h-1.7v-9.2h3.8c0.8,0,1.5,0.1,2.1,0.4s1,0.6,1.4,1.1
		c0.3,0.5,0.5,1.1,0.5,1.8c0,0.7-0.2,1.3-0.5,1.8s-0.8,0.9-1.5,1.1l2.1,3L439.9,370L439.9,370z M439.3,362.8c-0.4-0.3-1-0.5-1.7-0.5
		h-2v3.7h2c0.7,0,1.3-0.2,1.7-0.5s0.6-0.8,0.6-1.4S439.7,363.1,439.3,362.8z"/>
	<path class="st2" d="M444.3,360.9h4c1,0,1.9,0.2,2.6,0.6c0.8,0.4,1.4,0.9,1.8,1.6c0.4,0.7,0.6,1.5,0.6,2.4s-0.2,1.7-0.6,2.4
		s-1,1.2-1.8,1.6c-0.8,0.4-1.6,0.6-2.6,0.6h-4V360.9z M448.3,368.6c0.7,0,1.3-0.1,1.8-0.4s0.9-0.6,1.2-1.1c0.3-0.5,0.4-1,0.4-1.7
		s-0.1-1.2-0.4-1.7c-0.3-0.5-0.7-0.8-1.2-1.1c-0.5-0.3-1.1-0.4-1.8-0.4H446v6.3L448.3,368.6L448.3,368.6z"/>
	<path class="st2" d="M461.8,367.9h-4.6l-0.9,2.1h-1.8l4.1-9.2h1.7l4.1,9.2h-1.8L461.8,367.9z M461.2,366.6l-1.7-4l-1.7,4H461.2z"/>
	<path class="st2" d="M474.2,366.1c0.3,0.4,0.5,0.9,0.5,1.5c0,0.8-0.3,1.4-0.9,1.8c-0.6,0.4-1.5,0.6-2.7,0.6h-4.6v-9.2h4.3
		c1.1,0,1.9,0.2,2.5,0.6c0.6,0.4,0.9,1,0.9,1.8c0,0.5-0.1,0.9-0.3,1.2s-0.5,0.6-0.9,0.8C473.5,365.4,473.9,365.7,474.2,366.1z
		 M468.2,362.2v2.5h2.4c0.6,0,1-0.1,1.4-0.3c0.3-0.2,0.5-0.5,0.5-0.9c0-0.4-0.2-0.7-0.5-1c-0.3-0.2-0.8-0.3-1.4-0.3L468.2,362.2
		L468.2,362.2z M472.9,367.4c0-0.9-0.7-1.3-2-1.3h-2.8v2.6h2.8C472.2,368.7,472.9,368.3,472.9,367.4z"/>
	<path class="st2" d="M477.3,360.9h1.7v7.8h4.8v1.4h-6.5L477.3,360.9L477.3,360.9z"/>
	<path class="st2" d="M492.8,368.6v1.4h-6.9v-9.2h6.7v1.4h-5v2.4h4.4v1.4h-4.4v2.5H492.8z"/>
	<path class="st2" d="M508.1,360.9v9.2h-1.7v-3.9h-4.8v3.9h-1.7v-9.2h1.7v3.8h4.8v-3.8H508.1z"/>
	<path class="st2" d="M513.1,369.6c-0.8-0.4-1.3-1-1.8-1.7s-0.6-1.5-0.6-2.4s0.2-1.7,0.6-2.4c0.4-0.7,1-1.3,1.8-1.7
		c0.8-0.4,1.6-0.6,2.5-0.6c0.9,0,1.8,0.2,2.5,0.6c0.8,0.4,1.3,1,1.8,1.7s0.6,1.5,0.6,2.4s-0.2,1.7-0.6,2.4s-1,1.3-1.8,1.7
		s-1.6,0.6-2.5,0.6C514.7,370.2,513.9,370,513.1,369.6z M517.3,368.3c0.5-0.3,0.9-0.7,1.2-1.2c0.3-0.5,0.4-1,0.4-1.7
		c0-0.6-0.1-1.2-0.4-1.7c-0.3-0.5-0.7-0.9-1.2-1.2c-0.5-0.3-1-0.4-1.7-0.4c-0.6,0-1.2,0.1-1.7,0.4c-0.5,0.3-0.9,0.7-1.2,1.2
		c-0.3,0.5-0.4,1-0.4,1.7c0,0.6,0.1,1.2,0.4,1.7c0.3,0.5,0.7,0.9,1.2,1.2c0.5,0.3,1,0.4,1.7,0.4S516.8,368.5,517.3,368.3z"/>
	<path class="st2" d="M531.7,370l0-6.1l-3,5h-0.8l-3-5v6h-1.6v-9.2h1.4l3.7,6.1l3.6-6.1h1.4l0,9.2L531.7,370L531.7,370z"/>
	<path class="st2" d="M543.4,368.6v1.4h-6.9v-9.2h6.7v1.4h-5v2.4h4.4v1.4h-4.4v2.5H543.4z"/>
	<path class="st2" d="M559,370l0-6.1l-3,5h-0.8l-3-5v6h-1.6v-9.2h1.4l3.7,6.1l3.6-6.1h1.4l0,9.2L559,370L559,370z"/>
	<path class="st2" d="M569.9,367.9h-4.6l-0.9,2.1h-1.8l4.1-9.2h1.7l4.2,9.2h-1.8L569.9,367.9z M569.3,366.6l-1.7-4l-1.7,4H569.3z"/>
	<path class="st2" d="M574.5,360.9h1.7v9.2h-1.7V360.9z"/>
	<path class="st2" d="M587.7,360.9v9.2h-1.4l-5.1-6.2v6.2h-1.7v-9.2h1.4l5.1,6.2v-6.2H587.7z"/>
	<path class="st2" d="M592.8,362.3h-3v-1.4h7.8v1.4h-3v7.8h-1.7V362.3z"/>
	<path class="st2" d="M606.6,368.6v1.4h-6.9v-9.2h6.7v1.4h-5v2.4h4.4v1.4h-4.4v2.5H606.6z"/>
	<path class="st2" d="M617.4,360.9v9.2H616l-5.1-6.2v6.2h-1.7v-9.2h1.4l5.1,6.2v-6.2H617.4z"/>
	<path class="st2" d="M626.7,367.9h-4.6l-0.9,2.1h-1.8l4.1-9.2h1.7l4.2,9.2h-1.8L626.7,367.9z M626.1,366.6l-1.7-4l-1.7,4H626.1z"/>
	<path class="st2" d="M639.5,360.9v9.2h-1.4l-5.1-6.2v6.2h-1.7v-9.2h1.4l5.1,6.2v-6.2H639.5z"/>
	<path class="st2" d="M644.5,369.6c-0.8-0.4-1.3-1-1.8-1.7c-0.4-0.7-0.6-1.5-0.6-2.4s0.2-1.7,0.6-2.4s1-1.3,1.8-1.7s1.6-0.6,2.5-0.6
		c0.8,0,1.4,0.1,2.1,0.4s1.2,0.6,1.6,1.1l-1.1,1c-0.7-0.7-1.5-1.1-2.5-1.1c-0.6,0-1.2,0.1-1.7,0.4c-0.5,0.3-0.9,0.7-1.2,1.1
		c-0.3,0.5-0.4,1-0.4,1.7c0,0.6,0.1,1.2,0.4,1.7c0.3,0.5,0.7,0.9,1.2,1.1s1.1,0.4,1.7,0.4c1,0,1.8-0.4,2.5-1.1l1.1,1
		c-0.4,0.5-1,0.9-1.6,1.1c-0.6,0.3-1.3,0.4-2.1,0.4C646.1,370.2,645.3,370,644.5,369.6z"/>
	<path class="st2" d="M660,368.6v1.4h-6.9v-9.2h6.7v1.4h-5v2.4h4.4v1.4h-4.4v2.5H660z"/>
</g>
<path class="st2" d="M285.9,330.9c1.3,0.6,2.4,1.4,3,2.5c0.7,1.1,1.1,2.4,1.1,3.9c0,1.5-0.4,2.8-1.1,3.9c-0.7,1.1-1.7,2-3,2.5
	c-1.3,0.6-2.9,0.9-4.7,0.9h-4.7v6h-3.8v-20.6h8.5C283,330,284.5,330.4,285.9,330.9z M284.8,340.4c0.9-0.7,1.3-1.7,1.3-3
	s-0.4-2.3-1.3-3c-0.9-0.7-2.1-1.1-3.8-1.1h-4.5v8.2h4.5C282.7,341.5,283.9,341.1,284.8,340.4z"/>
<path class="st2" d="M309.1,350.7l-4.2-6c-0.2,0-0.4,0-0.8,0h-4.7v6h-3.8v-20.6h8.5c1.8,0,3.4,0.3,4.7,0.9c1.3,0.6,2.4,1.4,3,2.5
	c0.7,1.1,1.1,2.4,1.1,3.9c0,1.5-0.4,2.9-1.1,4s-1.8,2-3.3,2.5l4.8,6.8L309.1,350.7L309.1,350.7z M307.7,334.4
	c-0.9-0.7-2.1-1.1-3.8-1.1h-4.5v8.2h4.5c1.7,0,2.9-0.4,3.8-1.1s1.3-1.7,1.3-3C309,336.1,308.6,335.1,307.7,334.4z"/>
<path class="st2" d="M322.9,349.6c-1.7-0.9-3-2.2-4-3.8c-1-1.6-1.5-3.4-1.5-5.4c0-2,0.5-3.8,1.5-5.4c1-1.6,2.3-2.9,4-3.8
	c1.7-0.9,3.6-1.4,5.7-1.4s4,0.5,5.7,1.4c1.7,0.9,3,2.2,4,3.8c1,1.6,1.5,3.4,1.5,5.5s-0.5,3.9-1.5,5.5c-1,1.6-2.3,2.9-4,3.8
	s-3.6,1.4-5.7,1.4S324.6,350.5,322.9,349.6z M332.3,346.7c1.1-0.6,2-1.5,2.6-2.6c0.6-1.1,0.9-2.4,0.9-3.7s-0.3-2.6-0.9-3.7
	c-0.6-1.1-1.5-2-2.6-2.6c-1.1-0.6-2.3-0.9-3.7-0.9s-2.6,0.3-3.7,0.9s-2,1.5-2.6,2.6c-0.6,1.1-0.9,2.4-0.9,3.7c0,1.4,0.3,2.6,0.9,3.7
	c0.6,1.1,1.5,2,2.6,2.6c1.1,0.6,2.3,0.9,3.7,0.9C330,347.6,331.2,347.3,332.3,346.7z"/>
<path class="st2" d="M358.8,330.9c1.3,0.6,2.4,1.4,3,2.5c0.7,1.1,1.1,2.4,1.1,3.9c0,1.5-0.4,2.8-1.1,3.9c-0.7,1.1-1.7,2-3,2.5
	c-1.3,0.6-2.9,0.9-4.7,0.9h-4.7v6h-3.8v-20.6h8.5C355.9,330,357.5,330.4,358.8,330.9z M357.7,340.4c0.9-0.7,1.3-1.7,1.3-3
	s-0.4-2.3-1.3-3c-0.9-0.7-2.1-1.1-3.8-1.1h-4.5v8.2h4.5C355.6,341.5,356.9,341.1,357.7,340.4z"/>
<path class="st2" d="M384,347.5v3.2h-15.5v-20.6h15.1v3.2h-11.2v5.4h10v3.2h-10v5.7L384,347.5L384,347.5z"/>
<path class="st2" d="M403.6,350.7l-4.2-6c-0.2,0-0.4,0-0.8,0h-4.7v6h-3.8v-20.6h8.5c1.8,0,3.4,0.3,4.7,0.9c1.3,0.6,2.4,1.4,3,2.5
	c0.7,1.1,1.1,2.4,1.1,3.9c0,1.5-0.4,2.9-1.1,4s-1.8,2-3.3,2.5l4.8,6.8L403.6,350.7L403.6,350.7z M402.2,334.4
	c-0.9-0.7-2.1-1.1-3.8-1.1h-4.5v8.2h4.5c1.7,0,2.9-0.4,3.8-1.1s1.3-1.7,1.3-3C403.5,336.1,403.1,335.1,402.2,334.4z"/>
<path class="st2" d="M417.4,333.3h-6.8v-3.2H428v3.2h-6.8v17.4h-3.8V333.3z"/>
<path class="st2" d="M441.3,343.4v7.3h-3.8v-7.2l-8.1-13.4h4.1l6,10.1l6.1-10.1h3.8L441.3,343.4z"/>
<g>
	<polygon class="st3" points="304.5,275.6 294.7,291.9 285,275.6 272.7,275.6 288.4,301.8 288.4,316.7 300,316.7 300,302 
		315.8,275.6 	"/>
	<path class="st3" d="M349.4,277.5c-3.5-1.8-7.4-2.8-11.7-2.8c-4.4,0-8.3,0.9-11.7,2.8c-3.5,1.8-6.2,4.4-8.2,7.6s-3,6.9-3,11
		c0,4.1,1,7.7,3,11s4.7,5.8,8.2,7.6c3.5,1.8,7.4,2.8,11.7,2.8c4.4,0,8.3-0.9,11.7-2.8c3.5-1.8,6.2-4.4,8.2-7.6s3-6.9,3-11
		c0-4.1-1-7.7-3-11S352.9,279.4,349.4,277.5z M347.3,302.3c-1,1.8-2.3,3.2-4,4.1s-3.6,1.5-5.6,1.5c-2.1,0-4-0.5-5.6-1.5
		c-1.7-1-3-2.4-4-4.1c-1-1.8-1.5-3.8-1.5-6.1c0-2.3,0.5-4.4,1.5-6.1c1-1.8,2.3-3.2,4-4.1c1.7-1,3.6-1.5,5.6-1.5c2.1,0,4,0.5,5.6,1.5
		c1.7,1,3,2.4,4,4.1c1,1.8,1.5,3.8,1.5,6.1S348.3,300.5,347.3,302.3z"/>
	<path class="st3" d="M393.5,298c0,6.6-2.6,9.9-7.8,9.9c-5.2,0-7.8-3.3-7.8-9.9v-22.5h-11.6v22.8c0,6.1,1.7,10.8,5.1,14.2
		c3.4,3.3,8.1,5,14.3,5s10.9-1.7,14.3-5c3.4-3.3,5.1-8,5.1-14.2v-22.8h-11.4V298z"/>
	<path class="st3" d="M447.8,298.6c1.4-2.2,2.1-4.8,2.1-7.8c0-3.1-0.8-5.8-2.2-8.1c-1.5-2.3-3.6-4-6.4-5.3c-2.7-1.2-6-1.9-9.7-1.9
		h-18.8v41.1h11.6v-10.9h6.4l7.5,10.9h12.5l-8.9-12.9C444.5,302.5,446.4,300.8,447.8,298.6z M436.4,295.3c-1.2,1-3,1.6-5.4,1.6h-6.5
		v-12h6.5c2.4,0,4.2,0.5,5.4,1.6c1.2,1.1,1.8,2.5,1.8,4.5C438.2,292.7,437.6,294.2,436.4,295.3z"/>
	<polygon class="st3" points="500.9,291 485.1,291 485.1,275.6 473.4,275.6 473.4,316.7 485.1,316.7 485.1,300.7 500.9,300.7 
		500.9,316.7 512.6,316.7 512.6,275.6 500.9,275.6 	"/>
	<path class="st3" d="M553.3,277.5c-3.5-1.8-7.4-2.8-11.7-2.8c-4.3,0-8.3,0.9-11.7,2.8c-3.5,1.8-6.2,4.4-8.2,7.6s-3,6.9-3,11
		c0,4.1,1,7.7,3,11s4.7,5.8,8.2,7.6c3.5,1.8,7.4,2.8,11.7,2.8c4.3,0,8.3-0.9,11.7-2.8c3.5-1.8,6.2-4.4,8.2-7.6s3-6.9,3-11
		c0-4.1-1-7.7-3-11C559.5,281.9,556.7,279.4,553.3,277.5z M551.2,302.3c-1,1.8-2.3,3.2-4,4.1s-3.6,1.5-5.6,1.5c-2.1,0-4-0.5-5.6-1.5
		c-1.7-1-3-2.4-4-4.1c-1-1.8-1.5-3.8-1.5-6.1c0-2.3,0.5-4.4,1.5-6.1c1-1.8,2.3-3.2,4-4.1c1.7-1,3.6-1.5,5.6-1.5c2.1,0,4,0.5,5.6,1.5
		s3,2.4,4,4.1c1,1.8,1.5,3.8,1.5,6.1C552.7,298.5,552.2,300.5,551.2,302.3z"/>
	<polygon class="st3" points="608.7,275.6 594.5,299.3 580.1,275.6 570.5,275.6 570.5,316.7 581.3,316.7 581.3,295.5 591.8,312.7 
		597,312.7 607.5,294.9 607.7,316.7 618.3,316.7 618.2,275.6 	"/>
	<polygon class="st3" points="638.1,307.7 638.1,300.2 656.4,300.2 656.4,291.5 638.1,291.5 638.1,284.6 658.8,284.6 658.8,275.6 
		626.6,275.6 626.6,316.7 659.6,316.7 659.6,307.7 	"/>
</g>
<g>
	<path class="st2" d="M479.8,350.4l0-13.7l-5.8,11.4h-1.5l-5.8-11.2v13.6h-3.1v-20.7h2.7l7.1,13.7l6.9-13.7h2.7l0,20.7H479.8z"/>
	<path class="st2" d="M499.2,345.6h-8.9l-1.8,4.8h-3.4l8-20.7h3.3l8,20.7H501L499.2,345.6z M498.1,342.6l-3.4-9.1l-3.3,9.1H498.1z"
		/>
	<path class="st2" d="M506.7,329.7h3.3v20.7h-3.3V329.7z"/>
	<path class="st2" d="M530.6,329.7v20.7h-2.7l-9.8-14v14h-3.3v-20.7h2.7l9.8,14v-14H530.6z"/>
	<path class="st2" d="M539,332.9h-5.9v-3.3h15.1v3.3h-5.9v17.5H539V332.9z"/>
	<path class="st2" d="M564,347.2v3.2h-13.3v-20.7h13v3.2H554v5.4h8.6v3.2H554v5.7H564z"/>
	<path class="st2" d="M583.5,329.7v20.7h-2.7l-9.8-14v14h-3.3v-20.7h2.7l9.8,14v-14H583.5z"/>
	<path class="st2" d="M599.8,345.6h-8.9l-1.8,4.8h-3.4l8-20.7h3.3l8,20.7h-3.5L599.8,345.6z M598.7,342.6l-3.4-9.1l-3.3,9.1H598.7z"
		/>
	<path class="st2" d="M623,329.7v20.7h-2.7l-9.8-14v14h-3.3v-20.7h2.7l9.8,14v-14H623z"/>
	<path class="st2" d="M631.2,349.3c-1.4-0.9-2.6-2.2-3.4-3.8c-0.8-1.6-1.2-3.4-1.2-5.5c0-2,0.4-3.9,1.2-5.5c0.8-1.6,2-2.9,3.4-3.8
		c1.4-0.9,3.1-1.4,4.9-1.4c1.5,0,2.8,0.3,4,0.9c1.2,0.6,2.2,1.4,3,2.6l-2.1,2.3c-1.3-1.6-2.9-2.4-4.7-2.4c-1.2,0-2.3,0.3-3.3,0.9
		s-1.7,1.5-2.3,2.6c-0.5,1.1-0.8,2.4-0.8,3.8c0,1.4,0.3,2.7,0.8,3.8c0.5,1.1,1.3,2,2.3,2.6c1,0.6,2.1,0.9,3.3,0.9
		c1.9,0,3.5-0.8,4.7-2.5l2.1,2.4c-0.8,1.1-1.8,2-3.1,2.6s-2.5,0.9-4,0.9C634.3,350.7,632.6,350.3,631.2,349.3z"/>
	<path class="st2" d="M659.6,347.2v3.2h-13.3v-20.7h13v3.2h-9.7v5.4h8.6v3.2h-8.6v5.7H659.6z"/>
</g>
</svg>
